#!OML:ASF F:\VICON\USERDATA\INSTALL\Justin_Nancy\Justin_Nancy.ASF
:FULLY-SPECIFIED
:DEGREES
111
root -8.14091 17.2669 -14.0567 0.727188 0.900349 3.59461
lowerback 5.48798 -1.58722 -5.79953
upperback 0.635623 -2.41396 2.00255
thorax -2.09342 -1.15385 5.51053
lowerneck -15.4566 -2.87036 -9.92841
upperneck 23.7163 -2.59224 4.59188
head 10.3406 -1.5555 2.95579
rclavicle 6.70898e-015 -2.38542e-014
rhumerus -32.6749 -17.777 -76.609
rradius 26.5177
rwrist 10.3222
rhand -15.5898 16.6818
rfingers 7.12502
rthumb 10.5958 -13.0311
lclavicle 6.70898e-015 -2.38542e-014
lhumerus -23.6686 1.20669 83.5954
lradius 36.3591
lwrist -7.80211
lhand -18.0808 27.4345
lfingers 7.12502
lthumb 8.19232 57.2557
rfemur -26.296 4.3398 14.6871
rtibia 19.1444
rfoot -3.5383 -0.0850804
rtoes -7.52158
lfemur 7.96283 -2.84501 -30.4801
ltibia 22.95
lfoot -15.3495 -2.01319
ltoes -10.0234
112
root -8.15002 17.2882 -13.896 0.646739 1.17723 3.3396
lowerback 5.44725 -1.64177 -5.52182
upperback 0.73758 -2.46497 2.05502
thorax -1.96724 -1.18839 5.40649
lowerneck -15.6814 -2.86379 -9.86477
upperneck 23.8483 -2.5647 4.54413
head 10.428 -1.5427 2.93307
rclavicle 1.38652e-014 -1.27222e-014
rhumerus -32.5708 -18.0642 -76.5722
rradius 26.2285
rwrist 10.1584
rhand -15.7872 16.7445
rfingers 7.12502
rthumb 10.4054 -12.9781
lclavicle 1.38652e-014 -1.27222e-014
lhumerus -23.7083 1.43508 83.6124
lradius 36.1147
lwrist -8.12189
lhand -17.7752 26.9607
lfingers 7.12502
lthumb 8.48725 56.7702
rfemur -25.9926 4.61337 14.8796
rtibia 19.5475
rfoot -2.75631 -0.0362577
rtoes -9.29115
lfemur 8.20375 -3.52967 -30.3147
ltibia 23.657
lfoot -14.6585 -1.80217
ltoes -12.1015
113
root -8.15222 17.3056 -13.7321 0.74491 1.44629 3.01194
lowerback 5.19663 -1.7486 -5.15856
upperback 0.713905 -2.57173 2.17724
thorax -1.84769 -1.24755 5.32435
lowerneck -15.3428 -2.81747 -10.0273
upperneck 23.7043 -2.51037 4.62171
head 10.3097 -1.52401 2.99457
rclavicle -1.59028e-015 -5.56597e-015
rhumerus -32.6039 -18.1356 -76.4303
rradius 25.9955
rwrist 10.2484
rhand -15.4739 15.75
rfingers 7.12502
rthumb 10.7077 -13.9571
lclavicle -1.59028e-015 -5.56597e-015
lhumerus -23.9536 1.5686 83.7347
lradius 35.8403
lwrist -7.87678
lhand -16.8111 25.3485
lfingers 7.12502
lthumb 9.41765 55.118
rfemur -25.832 4.55824 15.2245
rtibia 19.9085
rfoot -2.13407 0.290702
rtoes -9.76077
lfemur 8.16487 -4.25814 -30.0957
ltibia 24.5364
lfoot -13.9153 -1.68886
ltoes -13.6991
114
root -8.15563 17.3197 -13.5625 0.792648 1.52801 2.55217
lowerback 5.06331 -1.80465 -4.78026
upperback 0.622666 -2.61548 2.41371
thorax -1.86777 -1.2689 5.35632
lowerneck -15.061 -2.75121 -10.1111
upperneck 23.5951 -2.37596 4.43621
head 10.2055 -1.49182 2.9589
rclavicle 5.725e-014 1.43125e-014
rhumerus -32.7364 -18.2354 -76.1014
rradius 25.8584
rwrist 10.7779
rhand -15.1699 15.8032
rfingers 7.12502
rthumb 11.0008 -13.8886
lclavicle 5.725e-014 1.43125e-014
lhumerus -24.3802 2.07911 83.917
lradius 35.5621
lwrist -7.87505
lhand -16.5303 28.4569
lfingers 7.12502
lthumb 9.68858 58.214
rfemur -25.6168 4.59097 15.7676
rtibia 20.2669
rfoot -1.65455 0.481813
rtoes -8.07997
lfemur 8.01088 -4.78632 -29.7298
ltibia 25.6797
lfoot -13.1341 -1.61671
ltoes -15.5545
115
root -8.15952 17.3353 -13.3906 0.67567 1.58252 2.21383
lowerback 5.02574 -1.78716 -4.46468
upperback 0.724419 -2.56987 2.54957
thorax -1.75491 -1.25378 5.3124
lowerneck -15.4733 -2.7965 -10.146
upperneck 23.7495 -2.36202 4.34685
head 10.3401 -1.49797 2.93563
rclavicle 1.4064e-014 -1.03368e-014
rhumerus -32.6376 -18.3145 -76.0343
rradius 25.9929
rwrist 11.179
rhand -15.2602 16.3264
rfingers 7.12502
rthumb 10.9138 -13.37
lclavicle 1.4064e-014 -1.03368e-014
lhumerus -24.4964 2.6062 84.0276
lradius 35.202
lwrist -8.5506
lhand -17.0697 29.0046
lfingers 7.12502
lthumb 9.16807 58.7853
rfemur -25.1968 4.37872 16.2773
rtibia 20.6663
rfoot -1.48437 0.364411
rtoes -7.29548
lfemur 7.83331 -5.19697 -29.4827
ltibia 27.0537
lfoot -12.2092 -1.65266
ltoes -16.5501
116
root -8.15797 17.3512 -13.2263 0.586739 1.55144 1.83256
lowerback 5.01867 -1.75301 -4.01405
upperback 0.738196 -2.49791 2.62384
thorax -1.7618 -1.22034 5.12957
lowerneck -15.4672 -2.75732 -10.0387
upperneck 23.8916 -2.32036 4.27875
head 10.3846 -1.48011 2.90115
rclavicle 1.44616e-014 -2.22639e-014
rhumerus -32.6811 -18.4381 -75.991
rradius 25.8145
rwrist 11.1503
rhand -15.496 16.6345
rfingers 7.12502
rthumb 10.6864 -13.0738
lclavicle 1.44616e-014 -2.22639e-014
lhumerus -24.8218 2.85847 84.0471
lradius 34.8707
lwrist -8.74415
lhand -17.8844 27.628
lfingers 7.12502
lthumb 8.38187 57.4417
rfemur -24.7627 3.9186 16.9025
rtibia 21.0756
rfoot -1.65238 0.0627207
rtoes -10.2478
lfemur 7.48126 -5.4623 -29.1935
ltibia 28.6255
lfoot -10.9863 -1.72237
ltoes -17.4336
117
root -8.15424 17.3679 -13.0584 0.619178 1.55751 1.60097
lowerback 4.86923 -1.70301 -3.73681
upperback 0.652739 -2.41094 2.67431
thorax -1.78609 -1.17596 5.01619
lowerneck -15.2322 -2.77883 -9.91203
upperneck 23.9671 -2.37342 4.1315
head 10.3681 -1.51395 2.82148
rclavicle 1.03865e-014 -1.35174e-014
rhumerus -32.8945 -18.4366 -75.8418
rradius 25.5403
rwrist 10.7006
rhand -15.4885 16.8268
rfingers 7.12502
rthumb 10.6935 -12.8811
lclavicle 1.03865e-014 -1.35174e-014
lhumerus -25.2706 3.22297 84.1171
lradius 34.3851
lwrist -9.0411
lhand -18.8468 24.895
lfingers 7.12502
lthumb 7.45299 54.7437
rfemur -24.4385 3.60294 17.2882
rtibia 21.5187
rfoot -2.04812 0.163079
rtoes -10.1233
lfemur 6.97077 -5.67227 -29.039
ltibia 30.3069
lfoot -9.6153 -1.93335
ltoes -18.1349
118
root -8.1557 17.3867 -12.8898 0.661103 1.59952 1.16691
lowerback 4.72371 -1.62897 -3.25488
upperback 0.631706 -2.28196 2.7348
thorax -1.75755 -1.11454 4.79356
lowerneck -15.4781 -2.85353 -9.67469
upperneck 24.2408 -2.47259 3.95617
head 10.5178 -1.56158 2.70787
rclavicle 2.74323e-014 2.38542e-015
rhumerus -32.9194 -18.5344 -75.8128
rradius 25.312
rwrist 10.4242
rhand -15.9718 17.6468
rfingers 7.12502
rthumb 10.2274 -12.0846
lclavicle 2.74323e-014 2.38542e-015
lhumerus -25.5638 3.50691 84.1596
lradius 33.8967
lwrist -9.4015
lhand -19.2796 23.1132
lfingers 7.12502
lthumb 7.03528 52.9763
rfemur -24.1016 3.59324 17.8574
rtibia 21.9323
rfoot -2.15907 0.781523
rtoes -7.42019
lfemur 6.27761 -5.73482 -28.5448
ltibia 32.1348
lfoot -8.18131 -2.53973
ltoes -18.5857
119
root -8.15763 17.4073 -12.7265 0.566943 1.54692 0.934521
lowerback 4.80316 -1.51207 -3.03073
upperback 0.605708 -2.11481 2.77942
thorax -1.85313 -1.02944 4.70743
lowerneck -15.4741 -2.86301 -9.68986
upperneck 24.335 -2.49999 4.02035
head 10.5544 -1.56962 2.73139
rclavicle 1.49089e-016 2.3059e-014
rhumerus -33.0701 -18.5158 -75.7842
rradius 25.2853
rwrist 10.1673
rhand -16.4923 18.2381
rfingers 7.12502
rthumb 9.72524 -11.5173
lclavicle 1.49089e-016 2.3059e-014
lhumerus -25.9472 3.69306 84.3135
lradius 33.4649
lwrist -9.33053
lhand -19.0622 22.5307
lfingers 7.12502
lthumb 7.24511 52.3867
rfemur -23.6372 3.69606 18.2159
rtibia 22.3283
rfoot -2.10849 1.41003
rtoes -5.80233
lfemur 5.59284 -5.75135 -28.3182
ltibia 33.9998
lfoot -6.35973 -3.01485
ltoes -19.3459
120
root -8.15582 17.4275 -12.5603 0.441045 1.62414 0.893409
lowerback 4.8033 -1.51443 -2.98831
upperback 0.611842 -2.11525 2.80459
thorax -1.84743 -1.03014 4.70951
lowerneck -15.3255 -2.79898 -9.78115
upperneck 24.3405 -2.41833 4.08656
head 10.5233 -1.5342 2.78276
rclavicle 2.23633e-014 3.18055e-015
rhumerus -33.1562 -18.2333 -75.7671
rradius 25.3023
rwrist 9.99402
rhand -16.6207 18.1075
rfingers 7.12502
rthumb 9.60128 -11.6537
lclavicle 2.23633e-014 3.18055e-015
lhumerus -26.3185 4.08786 84.45
lradius 33.1014
lwrist -9.14824
lhand -17.5847 23.4036
lfingers 7.12502
lthumb 8.67108 53.2055
rfemur -23.028 3.52077 18.3667
rtibia 22.5918
rfoot -2.22761 1.5974
rtoes -4.85736
lfemur 4.86674 -5.68144 -28.2142
ltibia 35.9099
lfoot -4.3354 -3.73404
ltoes -19.8169
121
root -8.15891 17.442 -12.3977 0.308934 1.73656 0.766892
lowerback 4.8026 -1.49206 -2.94612
upperback 0.663256 -2.08273 2.84193
thorax -1.79745 -1.01615 4.72149
lowerneck -15.2601 -2.79351 -9.72328
upperneck 24.3033 -2.42758 4.06862
head 10.4964 -1.53482 2.765
rclavicle 1.40143e-014 -2.78299e-014
rhumerus -33.0883 -18.0289 -75.8182
rradius 25.2716
rwrist 10.0587
rhand -16.9294 17.6092
rfingers 7.12502
rthumb 9.30348 -12.1655
lclavicle 1.40143e-014 -2.78299e-014
lhumerus -26.6981 4.42624 84.4971
lradius 32.9828
lwrist -9.2371
lhand -16.7878 29.5687
lfingers 7.12502
lthumb 9.44014 59.3372
rfemur -22.371 3.51916 18.5983
rtibia 22.7903
rfoot -2.46993 1.26029
rtoes -4.04465
lfemur 4.08428 -5.48663 -27.9037
ltibia 37.8343
lfoot -1.99183 -4.76975
ltoes -19.9537
122
root -8.16782 17.4618 -12.2418 0.233984 1.83117 0.30545
lowerback 4.79886 -1.39553 -2.57591
upperback 0.719399 -1.93324 2.92479
thorax -1.76234 -0.945116 4.58803
lowerneck -15.5213 -2.89854 -9.5318
upperneck 24.5367 -2.57304 3.95946
head 10.6399 -1.59854 2.67553
rclavicle 3.47873e-014 -1.03368e-014
rhumerus -33.0839 -18.0103 -75.8585
rradius 25.4875
rwrist 10.4743
rhand -16.7935 16.7463
rfingers 7.12502
rthumb 9.43461 -13.0225
lclavicle 3.47873e-014 -1.03368e-014
lhumerus -26.8833 4.35739 84.6331
lradius 32.6993
lwrist -9.0248
lhand -13.2417 39.5323
lfingers 7.12502
lthumb 12.8602 69.1161
rfemur -21.7319 3.77361 19.2077
rtibia 22.8409
rfoot -2.54125 0.880344
rtoes -4.23217
lfemur 3.08633 -5.34121 -27.191
ltibia 39.8158
lfoot 0.786057 -5.63875
ltoes -19.6971
123
root -8.17437 17.4823 -12.0839 0.138282 1.97772 -0.00518132
lowerback 4.81048 -1.32626 -2.33136
upperback 0.803995 -1.82773 2.99254
thorax -1.6975 -0.89623 4.51251
lowerneck -15.8257 -3.0107 -9.53596
upperneck 24.7028 -2.70491 3.97959
head 10.7713 -1.65682 2.66596
rclavicle -3.67752e-015 -4.37326e-014
rhumerus -33.0482 -17.6115 -76.0006
rradius 25.8858
rwrist 10.3223
rhand -16.3119 16.2731
rfingers 7.12502
rthumb 9.89926 -13.4742
lclavicle -3.67752e-015 -4.37326e-014
lhumerus -26.872 4.64773 84.7418
lradius 32.1434
lwrist -9.36339
lhand -14.3259 35.1429
lfingers 7.12502
lthumb 11.8149 64.7897
rfemur -20.9808 4.13614 19.6273
rtibia 22.7041
rfoot -2.5484 0.489603
rtoes -3.54926
lfemur 1.99355 -5.16694 -26.6134
ltibia 41.8594
lfoot 3.36826 -6.13897
ltoes -18.2888
124
root -8.17591 17.5084 -11.9188 0.058639 2.10207 -0.39187
lowerback 4.74485 -1.28526 -1.99645
upperback 0.833132 -1.75335 3.11789
thorax -1.64408 -0.861985 4.44627
lowerneck -15.7766 -3.03457 -9.77499
upperneck 24.7141 -2.73369 4.18864
head 10.7753 -1.66769 2.77887
rclavicle -1.94809e-014 1.59028e-014
rhumerus -33.1065 -16.9756 -76.0991
rradius 26.1226
rwrist 9.62377
rhand -16.3004 16.6125
rfingers 7.12502
rthumb 9.91031 -13.1342
lclavicle -1.94809e-014 1.59028e-014
lhumerus -27.0936 4.99968 84.8451
lradius 31.6615
lwrist -9.83317
lhand -16.1963 30.1418
lfingers 7.12502
lthumb 10.0108 59.8837
rfemur -20.1216 4.47602 20.0847
rtibia 22.3193
rfoot -2.35992 0.352229
rtoes -0.850221
lfemur 0.823829 -4.98465 -25.9859
ltibia 43.9981
lfoot 5.54647 -6.91961
ltoes -16.8816
125
root -8.17628 17.5387 -11.76 0.043984 2.14799 -0.848925
lowerback 4.69518 -1.17232 -1.58141
upperback 0.770372 -1.57848 3.21689
thorax -1.70553 -0.774374 4.30385
lowerneck -15.5215 -2.9702 -9.81364
upperneck 24.6823 -2.6791 4.26722
head 10.7106 -1.63834 2.82262
rclavicle 2.61402e-014 -3.57812e-014
rhumerus -33.3506 -16.9889 -75.8927
rradius 26.9129
rwrist 12.1459
rhand -15.3716 14.2953
rfingers 7.12502
rthumb 10.8064 -15.4067
lclavicle 2.61402e-014 -3.57812e-014
lhumerus -27.5934 4.86825 85.0144
lradius 31.3599
lwrist -9.35506
lhand -16.2164 28.6278
lfingers 7.12502
lthumb 9.99137 58.3707
rfemur -19.2481 4.79976 20.6564
rtibia 21.7704
rfoot -1.98119 0.347649
rtoes -0.305859
lfemur -0.518241 -4.74508 -25.2874
ltibia 46.2033
lfoot 7.88152 -7.90197
ltoes -13.3543
